<svg viewBox="0 0 256 256" xmlns="http://www.w3.org/2000/svg">
    <g transform="matrix(1,0,0,1,-271.659,-286.14)">
        <g id="egg-shell" transform="matrix(1,0,0,1,-760.341,13.6246)">
            <path d="M1089.44,431.082C1088.28,431.661 1087.75,433.029 1088.23,434.235C1094.4,449.9 1104.5,463.305 1118.86,472.061C1119.53,472.471 1120.36,472.541 1121.09,472.248C1121.82,471.955 1122.37,471.335 1122.58,470.574L1123.95,465.452C1124.45,463.586 1126.37,462.477 1128.24,462.977C1130.1,463.477 1131.21,465.398 1130.71,467.264C1130.71,467.264 1128.73,474.662 1128.73,474.662C1128.4,475.899 1129.05,477.186 1130.25,477.644C1139.02,481.003 1149.03,482.875 1160.34,482.875C1171.39,482.875 1181.19,481.088 1189.79,477.874C1191,477.423 1191.67,476.129 1191.33,474.885L1189.29,467.264C1188.79,465.398 1189.9,463.477 1191.77,462.977C1193.63,462.477 1195.55,463.586 1196.05,465.452C1196.05,465.452 1197.51,470.895 1197.51,470.895C1197.71,471.653 1198.26,472.271 1198.99,472.565C1199.71,472.86 1200.54,472.796 1201.21,472.393C1215.85,463.627 1226.07,450.032 1232.25,434.119C1232.72,432.916 1232.19,431.555 1231.04,430.978L1221.46,426.188C1220.76,425.836 1219.93,425.836 1219.22,426.188L1201.91,434.847C1200.92,435.339 1199.76,435.339 1198.78,434.847C1198.78,434.847 1184.75,427.833 1181.94,426.431C1180.98,425.947 1180.34,425.924 1180.34,425.924C1179.95,425.924 1179.57,426.015 1179.22,426.188L1161.91,434.847C1160.92,435.339 1159.76,435.339 1158.78,434.847C1158.78,434.847 1144.75,427.833 1141.94,426.431C1140.98,425.947 1140.34,425.924 1140.34,425.924C1139.95,425.924 1139.57,426.015 1139.22,426.188L1121.91,434.847C1120.92,435.339 1119.76,435.339 1118.78,434.847C1118.78,434.847 1104.75,427.833 1101.94,426.431C1101.13,426.024 1100.62,425.94 1100.62,425.94C1100.14,425.887 1099.65,425.973 1099.22,426.188L1089.44,431.082Z" style="fill:white;"/>
        </g>
        <g id="smol-background" transform="matrix(1,0,0,1,-760.341,13.6246)">
            <path d="M1119.04,427.141C1118.94,427.1 1118.84,427.053 1118.74,427.002C1115.93,425.599 1101.91,418.586 1101.91,418.586C1100.92,418.093 1099.76,418.093 1098.78,418.586L1087.94,424.003C1087.27,424.341 1086.47,424.355 1085.79,424.042C1085.1,423.728 1084.59,423.121 1084.4,422.39C1081.46,410.954 1080.34,398.734 1080.91,386.54C1083.18,338.387 1111.64,289.875 1160.34,289.875C1208.49,289.875 1236.94,338.397 1239.35,386.55C1239.95,398.688 1238.88,410.851 1236.02,422.244C1235.83,422.979 1235.33,423.59 1234.64,423.906C1233.95,424.222 1233.15,424.209 1232.48,423.87C1232.48,423.87 1221.91,418.586 1221.91,418.586C1220.92,418.093 1219.76,418.093 1218.78,418.586L1201.46,427.244C1201.11,427.418 1200.73,427.508 1200.34,427.508L1200.34,427.508L1200.34,427.508C1199.87,427.508 1199.42,427.375 1199.04,427.141C1198.94,427.1 1198.84,427.053 1198.74,427.002C1195.93,425.599 1181.91,418.586 1181.91,418.586C1180.92,418.093 1179.76,418.093 1178.78,418.586L1161.46,427.244C1161.11,427.418 1160.73,427.508 1160.34,427.508L1160.34,427.508L1160.34,427.508C1159.87,427.508 1159.42,427.375 1159.04,427.141C1158.94,427.1 1158.84,427.053 1158.74,427.002C1155.93,425.599 1141.91,418.586 1141.91,418.586C1140.92,418.093 1139.76,418.093 1138.78,418.586L1121.46,427.244C1121.11,427.418 1120.73,427.508 1120.34,427.508L1120.34,427.508L1120.34,427.508C1119.87,427.508 1119.42,427.375 1119.04,427.141Z" style="fill:rgb(242,254,0);"/>
        </g>
        <g id="smol-border" transform="matrix(1,0,0,1,-760.341,13.6246)">
            <path d="M1074.28,363.654C1083.61,319.079 1114.2,280.375 1160.34,280.375C1205.94,280.375 1236.46,319.021 1245.9,363.561L1259.01,357.009C1261.97,355.528 1265.58,356.73 1267.06,359.692C1268.54,362.654 1267.34,366.261 1264.37,367.742L1247.96,375.947C1248.37,379.315 1248.66,382.694 1248.83,386.076C1250.8,425.445 1236.53,464.601 1203.19,482.418L1206.86,496.11L1224.64,499.75C1227.34,500.303 1229.09,502.947 1228.54,505.651C1227.98,508.354 1225.34,510.1 1222.63,509.547L1209.75,506.91L1211.41,513.101C1212.26,516.3 1210.36,519.593 1207.16,520.45C1203.97,521.307 1200.67,519.406 1199.82,516.207L1198.16,510.016L1188.32,518.742C1186.25,520.573 1183.09,520.383 1181.26,518.318C1179.43,516.254 1179.62,513.091 1181.68,511.26L1195.26,499.216L1192.07,487.292C1182.72,490.571 1172.16,492.375 1160.34,492.375C1148.27,492.375 1137.5,490.492 1127.99,487.079L1124.74,499.216L1138.32,511.26C1140.38,513.091 1140.57,516.254 1138.74,518.318C1136.91,520.383 1133.75,520.573 1131.68,518.742L1121.84,510.016L1120.18,516.207C1119.33,519.406 1116.03,521.307 1112.84,520.45C1109.64,519.593 1107.74,516.3 1108.59,513.101L1110.25,506.91L1097.37,509.547C1094.66,510.1 1092.02,508.354 1091.46,505.651C1090.91,502.947 1092.66,500.303 1095.36,499.75L1113.14,496.11L1116.89,482.119C1083.86,464.169 1069.58,425.235 1071.42,386.093C1071.58,382.738 1071.86,379.385 1072.25,376.056L1055.63,367.742C1052.66,366.261 1051.46,362.654 1052.94,359.692C1054.42,356.73 1058.03,355.528 1060.99,357.009L1074.28,363.654ZM1090.55,433.318C1096.53,448.471 1106.27,461.457 1120.16,469.927L1121.53,464.805C1122.39,461.607 1125.68,459.705 1128.88,460.563C1132.08,461.42 1133.98,464.712 1133.12,467.911L1131.14,475.309C1139.65,478.568 1149.37,480.375 1160.34,480.375C1171.06,480.375 1180.57,478.65 1188.92,475.532L1186.88,467.911C1186.02,464.712 1187.92,461.42 1191.12,460.563C1194.32,459.705 1197.61,461.607 1198.47,464.805L1199.92,470.248C1214.09,461.771 1223.95,448.604 1229.92,433.214L1220.34,428.424L1203.02,437.083C1201.34,437.927 1199.35,437.927 1197.66,437.083C1197.66,437.083 1180.34,428.424 1180.34,428.424L1163.02,437.083C1161.34,437.927 1159.35,437.927 1157.66,437.083C1157.66,437.083 1140.34,428.424 1140.34,428.424L1123.02,437.083C1121.34,437.927 1119.35,437.927 1117.66,437.083C1117.66,437.083 1100.34,428.424 1100.34,428.424L1090.55,433.318ZM1233.59,421.634C1236.4,410.476 1237.44,398.563 1236.85,386.675C1234.51,339.84 1207.18,292.375 1160.34,292.375C1112.98,292.375 1085.62,339.823 1083.41,386.658C1082.85,398.6 1083.94,410.567 1086.82,421.767L1097.66,416.35C1099.35,415.505 1101.34,415.505 1103.02,416.35C1103.02,416.35 1120.34,425.008 1120.34,425.008L1137.66,416.35C1139.35,415.505 1141.34,415.505 1143.02,416.35C1143.02,416.35 1160.34,425.008 1160.34,425.008L1177.66,416.35C1179.35,415.505 1181.34,415.505 1183.02,416.35C1183.02,416.35 1200.34,425.008 1200.34,425.008L1217.66,416.35C1219.35,415.505 1221.34,415.505 1223.02,416.35L1233.59,421.634Z"/>
        </g>
        <g id="beak" transform="matrix(1,0,0,1,-0.202669,3.82963)">
            <path d="M377.764,394.472L397.764,404.472C399.172,405.176 400.828,405.176 402.236,404.472L422.236,394.472C424.704,393.238 425.706,390.232 424.472,387.764C423.238,385.296 420.232,384.294 417.764,385.528L400,394.41C400,394.41 382.236,385.528 382.236,385.528C379.768,384.294 376.762,385.296 375.528,387.764C374.294,390.232 375.296,393.238 377.764,394.472Z"/>
        </g>
        <g id="right-eye" transform="matrix(0.965926,-0.258819,0.258819,0.965926,-230.345,191.047)">
            <path d="M594,340L594,350C594,353.311 596.689,356 600,356C603.311,356 606,353.311 606,350L606,340C606,336.689 603.311,334 600,334C596.689,334 594,336.689 594,340Z"/>
        </g>
        <g id="left-eye" transform="matrix(0.965926,0.258819,-0.258819,0.965926,-129.171,-119.536)">
            <path d="M594,340L594,350C594,353.311 596.689,356 600,356C603.311,356 606,353.311 606,350L606,340C606,336.689 603.311,334 600,334C596.689,334 594,336.689 594,340Z"/>
        </g>
    </g>
</svg>