<?xml version="1.0" standalone="no"?>
<!DOCTYPE svg PUBLIC "-//W3C//DTD SVG 20010904//EN"
 "http://www.w3.org/TR/2001/REC-SVG-20010904/DTD/svg10.dtd">
<svg version="1.0" xmlns="http://www.w3.org/2000/svg"
 width="400.000000pt" height="400.000000pt" viewBox="0 0 400.000000 400.000000"
 preserveAspectRatio="xMidYMid meet">
<metadata>
Created by potrace 1.14, written by Peter Selinger 2001-2017
</metadata>
<g transform="translate(0.000000,400.000000) scale(0.100000,-0.100000)"
fill="#000000" stroke="none">
<path d="M2392 2856 c6 -14 17 -27 24 -30 9 -3 5 7 -8 24 -26 36 -31 38 -16 6z"/>
<path d="M2341 2834 c0 -11 3 -14 6 -6 3 7 2 16 -1 19 -3 4 -6 -2 -5 -13z"/>
<path d="M2356 2813 c-10 -62 -7 -97 10 -121 14 -21 13 -24 -18 -52 -21 -19
-42 -29 -58 -28 -34 3 -50 -8 -50 -33 0 -18 -4 -20 -30 -14 -26 6 -29 4 -23
-11 4 -11 3 -15 -4 -11 -19 12 -43 -4 -40 -26 2 -18 -4 -23 -31 -25 -30 -3
-32 -5 -16 -16 16 -12 15 -14 -9 -20 -24 -6 -26 -9 -15 -26 7 -11 21 -20 30
-20 10 0 18 -4 18 -10 0 -5 9 -10 20 -10 11 0 20 6 20 13 0 9 12 11 42 9 32
-3 45 0 55 14 17 24 17 38 -2 30 -11 -4 -15 2 -15 24 0 16 -4 32 -10 35 -12 8
-13 25 -1 25 5 0 13 -17 19 -37 5 -21 10 -31 11 -22 1 9 8 19 16 23 8 3 12 11
9 19 -14 37 76 53 123 22 31 -21 56 -19 72 6 9 16 15 18 20 10 6 -10 15 -9 39
1 31 13 31 14 18 40 -10 20 -11 28 -3 32 9 3 9 5 0 5 -6 1 -18 -6 -27 -14 -18
-18 -36 -19 -36 -2 0 9 -2 9 -9 -1 -11 -18 -59 -5 -71 19 -13 23 6 66 32 75
10 3 15 10 12 16 -5 7 -1 9 9 5 9 -3 19 -2 22 3 3 5 -3 11 -14 15 -11 3 -22
13 -25 21 -7 17 2 13 49 -22 l30 -23 33 21 c32 20 32 20 12 38 -30 26 -24 33
13 14 l32 -17 -34 32 c-30 28 -36 30 -44 16 -6 -12 -16 -15 -34 -10 -19 4 -26
1 -30 -15 -6 -22 -23 -28 -23 -7 0 8 -3 8 -9 -2 -8 -12 -15 -8 -36 17 -15 18
-30 32 -35 32 -4 0 -10 -17 -14 -37z m-166 -303 c0 -5 -7 -10 -16 -10 -8 0
-12 5 -9 10 3 6 10 10 16 10 5 0 9 -4 9 -10z m-50 -76 c0 -2 -13 -4 -30 -4
-16 0 -30 4 -30 8 0 5 14 7 30 4 17 -2 30 -6 30 -8z"/>
<path d="M2295 2799 c-17 -8 -16 -9 7 -6 19 3 28 -1 31 -12 3 -10 5 -8 6 7 1
23 -11 27 -44 11z"/>
<path d="M2289 2763 c-1 -4 -1 -11 0 -15 0 -4 -7 -4 -16 -1 -12 5 -15 2 -10
-10 3 -8 1 -17 -5 -19 -13 -5 -24 -98 -11 -98 5 0 7 16 5 35 -3 22 0 35 7 35
7 0 10 -11 9 -26 -2 -19 3 -28 19 -35 13 -5 25 -4 28 1 4 6 -1 10 -9 10 -20 0
-21 36 -1 47 8 5 16 24 17 43 2 26 -1 35 -14 38 -10 2 -19 0 -19 -5z m31 -23
c0 -5 -4 -10 -10 -10 -5 0 -10 5 -10 10 0 6 5 10 10 10 6 0 10 -4 10 -10z"/>
<path d="M2335 2689 c-4 -6 -5 -12 -2 -15 2 -3 7 2 10 11 7 17 1 20 -8 4z"/>
<path d="M2581 2628 c-16 -43 37 -87 106 -89 37 -1 38 -1 8 -9 -28 -7 -28 -8
-5 -8 14 -1 35 7 48 18 22 18 23 21 8 42 -9 12 -16 19 -16 14 0 -4 -15 2 -34
13 -18 12 -46 21 -62 22 -29 1 -29 1 -4 9 24 8 23 8 -8 9 -25 1 -35 -4 -41
-21z"/>
<path d="M2935 2550 c3 -5 -1 -10 -9 -10 -10 0 -16 -9 -16 -26 0 -14 4 -23 8
-20 4 2 9 -4 9 -15 2 -22 2 -22 -31 -9 -29 11 -86 3 -86 -13 0 -17 48 -55 60
-47 7 4 21 5 31 3 23 -6 26 12 3 21 -9 3 -29 6 -45 6 -16 0 -29 5 -29 10 0 16
71 10 162 -15 26 -7 26 -6 19 22 -5 15 -14 27 -21 25 -6 -1 -21 0 -32 3 -15 5
-17 10 -8 20 13 15 4 55 -11 55 -6 0 -7 -4 -4 -10z"/>
<path d="M2790 2520 c-8 -5 -12 -12 -9 -15 4 -3 12 1 19 10 14 17 11 19 -10 5z"/>
<path d="M2730 2440 c0 -13 20 -13 40 0 12 8 9 10 -12 10 -16 0 -28 -4 -28
-10z"/>
<path d="M883 1588 c-34 -42 -9 -119 40 -124 28 -3 35 14 21 51 -6 13 -9 14
-16 3 -7 -10 -8 -8 -4 5 8 25 -28 82 -41 65z"/>
<path d="M2296 1583 c-3 -8 4 -36 15 -61 16 -35 22 -71 24 -137 2 -49 6 -98
10 -108 4 -10 5 -34 2 -53 -6 -33 -3 -36 26 -48 48 -20 107 -29 107 -16 0 5
-5 10 -11 10 -5 0 -8 4 -5 9 8 12 -4 41 -16 41 -16 0 -48 41 -48 60 0 9 -7 25
-15 36 -8 10 -14 35 -14 54 0 28 2 31 9 15 17 -41 21 11 5 56 -20 55 -23 68
-24 99 -1 32 -56 68 -65 43z"/>
<path d="M1770 1555 c0 -10 -3 -15 -7 -12 -3 4 -13 -2 -20 -13 -13 -18 -12
-24 5 -51 l19 -31 7 58 c3 31 4 59 1 62 -3 3 -5 -3 -5 -13z"/>
<path d="M994 1411 c0 -11 5 -17 14 -14 14 6 12 25 -4 30 -5 2 -10 -5 -10 -16z"/>
<path d="M1095 1390 c3 -5 8 -10 11 -10 2 0 4 5 4 10 0 6 -5 10 -11 10 -5 0
-7 -4 -4 -10z"/>
<path d="M1128 1379 c-24 -14 -23 -28 2 -22 22 6 50 -17 50 -41 0 -9 6 -25 12
-36 11 -16 9 -22 -7 -34 -11 -9 -23 -16 -26 -16 -11 0 -19 45 -9 48 6 2 7 8 4
13 -12 20 -34 -14 -34 -51 0 -28 5 -40 18 -43 9 -3 2 -5 -15 -6 -22 -1 -33 -6
-33 -16 0 -8 7 -15 15 -15 8 0 15 -7 15 -15 0 -18 -8 -18 -40 0 -31 18 -40 18
-40 2 0 -7 12 -18 28 -23 l27 -10 -23 -13 c-26 -14 -45 -6 -22 9 11 7 3 10
-27 10 -23 0 -48 3 -56 6 -12 4 -14 0 -11 -18 5 -22 5 -22 -10 -4 -20 24 -35
12 -18 -14 15 -24 16 -54 2 -45 -17 11 -11 -11 12 -41 32 -42 47 -55 103 -99
28 -21 55 -44 60 -51 35 -40 252 -59 377 -33 101 22 230 96 269 155 8 13 19
21 24 17 4 -5 5 -2 0 6 -4 8 -2 16 5 21 8 5 7 9 -5 13 -9 4 -13 3 -10 -2 8
-15 -15 -25 -28 -12 -7 7 -7 11 0 11 12 0 6 84 -8 88 -17 6 -9 22 11 22 14 0
20 7 20 22 0 21 0 21 21 2 20 -18 21 -18 35 1 8 10 14 25 14 32 0 7 5 13 11
13 8 0 8 5 -1 15 -15 18 -44 20 -34 3 4 -7 -2 -4 -14 6 -26 22 -28 30 -7 22
18 -7 19 3 1 26 -10 14 -27 17 -87 15 -57 -2 -81 2 -101 15 -38 25 -154 47
-288 54 -63 3 -123 10 -132 15 -21 11 -29 11 -50 -2z m-168 -359 c0 -5 -2 -10
-4 -10 -3 0 -8 5 -11 10 -3 6 -1 10 4 10 6 0 11 -4 11 -10z"/>
<path d="M2278 1263 c-10 -2 -18 -8 -18 -13 0 -10 38 -1 46 11 5 9 1 10 -28 2z"/>
<path d="M2580 1210 c0 -5 5 -10 11 -10 5 0 7 5 4 10 -3 6 -8 10 -11 10 -2 0
-4 -4 -4 -10z"/>
<path d="M2621 1217 c2 -1 13 -9 24 -17 19 -14 19 -14 6 3 -7 9 -18 17 -24 17
-6 0 -8 -1 -6 -3z"/>
<path d="M1976 1151 c-24 -5 -26 -8 -15 -17 18 -15 114 -24 131 -13 9 6 7 9
-8 9 -12 0 -27 7 -34 15 -13 16 -26 17 -74 6z"/>
<path d="M2515 1150 c-3 -5 1 -10 10 -10 9 0 13 5 10 10 -3 6 -8 10 -10 10 -2
0 -7 -4 -10 -10z"/>
<path d="M2600 1130 c8 -5 22 -10 30 -10 13 0 13 1 0 10 -8 5 -22 10 -30 10
-13 0 -13 -1 0 -10z"/>
</g>
</svg>
